<?xml version="1.0" encoding="UTF-8"?>
<svg id="Layer_1" data-name="Layer 1" xmlns="http://www.w3.org/2000/svg" viewBox="0 0 217 145">
  <defs>
    <style>
      .cls-1, .cls-2 {
        fill: none;
        stroke: #000;
        stroke-miterlimit: 10;
      }

      .cls-2 {
        stroke-width: .25px;
      }
    </style>
  </defs>
  <g>
    <path class="cls-1" d="M177.9,64.09c-.33-2.95.32-5.72,1.74-8.25,2.95-5.26,7.59-8.27,13.51-8.47,7.64-.26,15.05,3.58,16.82,13.09,1.12,6.04-.04,11.59-4.56,16.06-5.73,5.67-16.61,6.02-22.45.56-4.81-4.49-5.37-11.63-1.78-17.92.8-1.41,1.83-2.69,2.96-3.94-.43,2.44-.83,4.81-1.12,7.2-.67,5.51,1.46,14.15,8.74,15.52,6.99,1.32,12.45-2.28,13.08-9.97.33-4.02-.03-8.02-1.95-11.68-2.83-5.43-7.75-7.36-13.71-5.44-6.31,2.03-9.59,6.71-11.11,12.88-.03.12-.1.24-.15.36Z"/>
    <path class="cls-1" d="M140.3,47.74c3.53.53,6.93.57,10.29.34,2.6-.18,5.09-.05,7.59.62,5.69,1.51,7.59,8.3,4.36,12.84-2.19,3.08-5.38,4.01-8.88,4.26-.88.06-1.75.67-3-.02,5.47-2.06,9.55-5.01,7.42-11.47-1.13-3.42-3.55-4.28-8.75-3.78v26.85c1.06,1.61,4.43.07,4.5,3.24-4.52-1.01-8.89-1.21-13.31-.08-.54-1.42.52-1.98,1.56-2.11,1.7-.21,2.1-1.05,2.09-2.63-.06-7.79-.07-15.58,0-23.37.02-1.5-.56-2.27-1.9-2.56-1.09-.23-1.65-.89-1.97-2.13Z"/>
    <path class="cls-1" d="M26.21,49.17c-.57,2.46-.22,4.74,1.64,7.05-1.6-.29-2.61-.73-3.2-1.9-1.49-2.93-4-4.43-7.17-4.37-2.01.03-4.19.38-5.32,2.59-1.21,2.36,0,4.23,1.19,6.09,1.57,2.46,4.11,3.93,6.17,5.88,1.6,1.51,2.7,3.38,3.99,5.45-.49-4.9-4.64-6.83-7.17-9.94,3.34,1.47,6.82,2.58,9.59,4.98,1.94,1.68,2.82,4,2.66,6.45-.26,4.07-1.42,7.46-6.98,8.94-4.87,1.3-9.53.39-14.12-1.77,1.13-2.94.55-5.57-1.09-8.03,1.42-.21,2.42.51,3.26,2.44,1.58,3.64,4.31,5.45,8.31,5.34,3.63-.11,6.39-3.04,5.79-6.58-.43-2.49-2.65-3.54-4.72-4.55-3.16-1.54-6.69-2.29-9.27-5.01-3.68-3.89-2.65-10.84,2.06-13.4,4.49-2.44,8.93-1.4,13.39,0,.3.09.59.19,1,.33Z"/>
    <path class="cls-1" d="M43.81,50.9c1.97.25,3.61.46,5.34.69v11.1c2.9-.1,5.71.19,8.41-.19q1.56-3.29,3.12-3.83c-1.08,3.46-1.09,6.85,0,10.28-1.6-.22-2.29-.94-2.45-2.38-.12-1.13-.8-1.72-2.13-1.64-2.26.13-4.54.04-6.93.04,0,3.84.01,7.58-.01,11.32,0,.85.6,1.31,1.17,1.36,3.58.3,7.19,1.22,10.68-.65,1.65-.89,2-2.92,3.66-3.74.48-.24.88-.67,1.68-.51-.9,2.54-1.07,5.27-2.34,7.76h-23.64c.19-1.34,1.27-2.01,2.39-2.32,1.2-.34,1.55-1.06,1.55-2.1.01-7.84,0-15.68,0-23.52,0-.5-.05-.99-.52-1.66Z"/>
    <path class="cls-1" d="M120.19,52.08c1.63.19,2.99.7,4.21,1.63-1.38-2.43-3.85-3.08-6.23-3.86-1.08-.35-1.68-.94-1.29-2.11h12.13c-.14.58-.25,1.04-.35,1.48-.09.08-.16.2-.24.2-3.47.35-3.16,2.84-3.14,5.32.07,7.08.08,14.16-.02,21.24-.02,1.43.47,2.1,1.74,2.36,1.15.24,1.87.83,1.98,2.14-4.12-.56-8.13-.72-12.12.07q-.05-.82.38-1.71c.92-.46,2.1-.5,2.95-1.35v-25.41Z"/>
    <path class="cls-1" d="M86.7,65.76c1.36-.99,2.6-1.88,3.89-2.82,4.09,4.45,8.2,8.92,12.3,13.39.89.97,1.9,1.72,3.22,2.04,1.09.26,1.62.98,1.48,2.18-4.31-.8-8.6-.86-13.15.1.31-.73.53-1.24.72-1.68.67-.61,1.74-.3,2.38-1.51-3.54-3.81-7.15-7.71-10.85-11.7Z"/>
    <path class="cls-1" d="M77.14,47.78c4.09,1.02,8.12.85,12.28.05-.21,1.14-.46,1.91-1.75,2.06-1.48.16-2.1,1.06-2.03,2.67.13,3.13.04,6.26.04,9.37-1.28,1.54-3.16,2.04-4.7,3.02-.64-.43-.42-1-.42-1.5-.02-3.8-.09-7.6.03-11.39.05-1.42-.6-2.05-1.75-2.19-1.45-.18-1.66-1.06-1.7-2.11Z"/>
    <path class="cls-1" d="M76.39,67.77c2.75-1.29,5.66-2.21,8.12-4.06,4.7-3.54,8.45-8.07,12.65-12.13.55-.54.72-1.22-.49-1.53-.95-.24-1.89-.81-1.46-2.26,3.35.52,6.7.49,10,.02.35.78-.07,1.27-.37,1.91-2.44.43-4.12,2.13-5.91,3.78-4.09,3.78-7.3,8.48-12.2,11.41-3.2,1.91-6.6,2.97-10.35,2.85Z"/>
    <path class="cls-1" d="M153.19,66.69c1.78.03,3.36-.23,5-.89,4.73,4.96,6.89,12.62,14.81,14.57-6.74,1.83-13.21-2.65-19.81-13.68Z"/>
    <path class="cls-1" d="M88.96,80.66c-3.95-.79-7.78-.77-11.63-.08q-.33-1.23,3.27-2.95v-9.5c1.77-.67,3.39-1.28,5.08-1.91v8.81q0,2.78,2.91,3.8c.29.53.73,1.04.38,1.83Z"/>
    <path class="cls-1" d="M167.01,93.02c1.03-2.94,1.98-5.66,3.08-8.82,1.63,2.92,2.17,5.88,3.41,8.74.82-2.31,1.61-4.58,2.43-6.88-.55-.4-1.56-.27-1.18-1.47,1.21.59,2.58.24,3.94.25-.18,1.08-.86.86-1.36,1.08-1.35,3.67-2.71,7.37-4.31,11.74-1.21-3.38-2.17-6.07-3.22-9.02-1.04,2.93-2,5.61-3.19,8.97-1.59-4.24-2.97-7.91-4.35-11.57-.45-.41-1.61-.14-1.16-1.45,1.49.74,3.17,0,4.79.34-.28,1.07-1.02.74-1.49.95.87,2.37,1.72,4.67,2.63,7.15Z"/>
    <path class="cls-1" d="M86.31,93.04c.87-2.5,1.67-4.78,2.48-7.1-.36-.38-1.18.11-1.42-.85,1.15-.86,2.64.5,3.74-.6.63,1.35-.49,1.17-1.05,1.54-1.29,3.58-2.6,7.23-4.07,11.31-1.56-2.96-2.25-5.86-3.36-8.75-1.02,2.87-2.01,5.63-3.22,9.02-1.63-4.33-3.01-8.02-4.39-11.68-.48-.25-1.15-.02-1.42-1.08,1.7-.16,3.32.32,4.92-.16.01,1.17-.72.97-1.25,1.32.82,2.25,1.64,4.51,2.54,7,1.04-2.95,2-5.71,2.97-8.46.17,0,.34-.01.5-.02.99,2.79,1.97,5.57,3.01,8.5Z"/>
    <path class="cls-1" d="M64.79,55.21h-1.38c-.62-.78-1.37-1.57-1.94-2.46-1.03-1.6-2.48-2.31-4.33-2.34-4.68-.07-9.41.41-14.01-.87-1.06-.3-2.2-.64-2.79-1.69,6.44,0,12.84,0,19.24,0,4.11,0,4.14,0,4.41,4.28.07,1.07.37,2.06.79,3.08Z"/>
    <path class="cls-1" d="M21.06,90h4.97v-4.08c-.3-.41-1.18.2-1.3-.67.37-.47,4.27-.51,4.76,0-.19.74-.93.42-1.35.59v9.46c.32.69,1.39.22,1.33,1.31h-4.74c-.16-1.06.91-.63,1.27-1.25v-4.09h-4.98v4.37c.31.35,1.42-.15,1.25,1.04h-4.59c-.41-1.13.82-.7,1.18-1.32v-9.2c-.3-.56-1.09-.18-1.38-1.13,1.43-.6,3.08.47,4.39-.5.63,1.25-.42,1.16-.81,1.38v4.11Z"/>
    <path class="cls-1" d="M109.4,96.61c-.29-1.32,1.03-.58,1.31-1.47v-9.01c-.38-.54-1.67-.23-1.29-1.45,2.22.44,4.43.19,6.62.23,2.78.05,5.25,2.41,5.28,5.11.04,3.82-2.07,6.52-5.2,6.58-2.22.04-4.44,0-6.73,0Z"/>
    <path class="cls-1" d="M47.08,86.04c-.55-.4-1.56-.2-1.25-1.38,2.7.7,5.53-.24,8.25.56,2.39.7,4.2,3.45,3.88,5.7-.49,3.46-2.71,5.68-5.7,5.7-2.15,0-4.3,0-6.45,0-.07-1.04.86-.67,1.27-1.21v-9.37Z"/>
    <path class="cls-1" d="M60.59,90.71c0-3.44,2.61-6.08,5.99-6.08,3.46,0,5.99,2.62,5.99,6.18,0,3.51-2.63,6.09-6.18,6.08-3.5,0-5.79-2.46-5.79-6.18Z"/>
    <path class="cls-1" d="M209.67,96.68h-8.39c-.33-1.21.96-.66,1.23-1.57v-9.22c-.36-.3-1.16.13-1.41-.96,2.72-.24,5.46.34,8.15-.28,1.05.78.45,2.08,1.11,3.03-1.38.31-1.2-.91-1.79-1.44-1.16-.64-2.52-.45-3.93-.44v4.19h2.66c.59-.36.23-1.14.89-1.33.54.41.62,3.38.09,3.95-.78-.17-.42-.92-.69-1.38h-2.91v4.2c2.09-.09,4.38.94,5.31-1.96.97.55.7,2.22-.32,3.21Z"/>
    <path class="cls-1" d="M140.02,88.36c-.88-2.83-2.82-2.81-4.94-2.5v4.12h2.64c.42-.4.05-1.52,1.19-1.3v3.95c-.86-.15-.82-.89-1.18-1.37h-2.67v4.17h3.74c.94-.31.94-1.63,2.04-2.03.37,1.23-.4,2.15-.5,3.29h-8.77c-.56-1.21.81-.74,1.32-1.19v-9.41c-.31-.52-1.71-.11-1.22-1.38,2.67.35,5.32.36,8.13-.11.23,1.04.45,2.04.67,3.04-.16.24-.31.49-.47.73Z"/>
    <path class="cls-1" d="M14.04,88.64c-1.48-2.25-2.83-3.8-5.28-2.28v1.58c.63.99,1.77,1.36,2.82,1.79,2.3.94,3.49,2.55,3.02,4.23-.64,2.28-2.7,3.28-5.25,2.95-2.43-.32-2.87-1.85-2.91-3.85.33-.28.69-.16,1.04-.07,1.38,3.19,3.12,3.7,5.12,1.5.51-1.95-1.03-2.44-2.28-2.87-1.85-.63-3.19-1.61-3.61-3.7.5-3.74,4.52-3.99,7.32-2.39v3.11Z"/>
    <path class="cls-1" d="M100.48,85.35c.12.82.24,1.7.45,3.19-1.96-1.82-3.51-4.57-5.95-1.4.6,2.01,2.51,2.1,3.85,2.9,1.38.82,2.43,1.75,2.32,3.52-.21,3.17-3.12,3.58-5.33,3.27-.8-.11-1.56-.51-2.33-.77-.14-1.05-.27-2.05-.4-3.03.98-.39,1.17.38,1.36.87.33.84.85,1.32,1.69,1.66,1.24.5,2.34.24,2.89-.86.56-1.11-.01-2.08-1.16-2.64-1.23-.61-2.66-.9-3.62-1.94-1.05-1.13-1.2-2.49-.34-3.81,1.18-1.81,2.99-1.86,4.86-1.53.57.1,1.11.38,1.72.6Z"/>
    <path class="cls-1" d="M198.4,92.54c.34,1.89-.46,2.88-.41,4.01-3.41.37-6.89,1.27-9.1-2.36-1.52-2.5-1.34-5.15.4-7.41,2.23-2.9,5.4-2.31,8.58-1.74.16.98.32,1.96.6,3.71-2.88-3.89-5.54-4.41-7.83-.55-1.3,2.19-.44,5.33,1.68,6.78,2.61,1.79,4.6.8,6.09-2.45Z"/>
    <path class="cls-1" d="M42.44,95.51c.56.37,1.39.13,1.25,1.15h-4.67c-.23-1.02.67-.76,1.12-1.13-.37-1-.75-2.02-1.15-3.1h-3.69c-.36.9-.75,1.9-1.16,2.92.15.68,1.4.12,1.34,1.05h-4c0-.17.01-.34.02-.51.38-.08.75-.16,1.24-.26,1.54-3.66,3.1-7.37,4.92-11.71,1.76,4.27,3.28,7.94,4.8,11.59Z"/>
    <path class="cls-1" d="M148.21,88.25c-.19-1.64.21-2.58.56-3.61,3.36.4,6.71.44,10.12-.02.3,1.07.82,2.02.48,3.45-1.2-1.37-2.11-3.1-4.3-2.07v9.24c.25.84,1.64.01,1.23,1.41h-4.98v-.84c.58-.06,1.18-.02,1.47-.62v-9.18c-2.04-.92-3.26.45-4.57,2.24Z"/>
    <path class="cls-1" d="M181.74,85.86c-.65-.11-1.5-.14-.93-1.25,1.4.47,2.81.4,4.23,0q0,.93-1.19,1.49v9.18c.33.71,1,.27,1.57,1-1.63.76-3.21.05-4.64.4-.49-1.27.68-.71.97-1.09v-9.73Z"/>
    <path class="cls-1" d="M125.28,85.85c-.36-.05-.71-.1-1.04-.14v-1.18c1.49.81,3.05.04,4.49.43-.06,1.02-.97.63-1.35,1.22v9.09c.31.76,1.48.15,1.27,1.37h-4.45c0-.11-.02-.38-.04-.76.38-.07.75-.14,1.12-.21v-9.81Z"/>
    <path class="cls-1" d="M112.82,95.42v-9.54c4.08-.41,6.19,1.2,6.28,4.83.07,3.01-.68,5.27-6.28,4.71Z"/>
    <path class="cls-1" d="M49.26,85.85c4.86-.26,6.5,1.65,6.41,5.09-.1,3.66-1.21,4.93-6.41,4.46v-9.55Z"/>
    <path class="cls-1" d="M70.28,91.22c0,2.71-1.23,4.4-3.29,4.53-1.99.13-4-1.89-4.09-4.35-.07-1.77-.53-3.78,1.33-5.01,2.63-1.73,5.86.2,6.05,3.55.02.43,0,.85,0,1.28Z"/>
    <path class="cls-1" d="M35.78,91.4c.44-1.21.87-2.38,1.36-3.73.54,1.31,1.01,2.47,1.53,3.73h-2.89Z"/>
  </g>
  <g>
    <path class="cls-2" d="M189.41,139.31v-.19h.17c.3,0,.39-.34.39-.67v-3.44c-.13-.17-.25-.38-.46-.38h-.1v-.18h2.66l1.9,2.6v-2.06c0-.2-.22-.35-.48-.35h-.14v-.19h1.44v.19h-.21c-.36,0-.36.27-.36.85v3.82h-1.18l-2.83-3.89v3.04c0,.32.07.67.41.67h.22v.19h-1.44Z"/>
    <path class="cls-2" d="M198.63,136.3c.41.29.7.81.7,1.32s-.23,1.02-.63,1.35c-.4.34-.99.45-1.55.45s-1.15-.11-1.55-.45c-.4-.34-.63-.83-.63-1.35s.29-1.03.7-1.32c.4-.28.95-.4,1.48-.4s1.08.12,1.48.4ZM196.8,138.7c0,.28,0,.55.35.55.39,0,.33-.27.33-.55v-2.1c0-.25,0-.53-.33-.53s-.35.29-.35.53v2.1Z"/>
    <path class="cls-2" d="M201.74,138.6c0,.57-.5.81-1.01.81s-1.02-.24-1.02-.81.51-.81,1.02-.81,1.01.25,1.01.81Z"/>
    <path class="cls-2" d="M206.36,136.86c0,1.63-.95,2.56-2.19,2.56s-2.19-.92-2.19-2.56,1.13-2.51,2.19-2.51,2.19.81,2.19,2.51ZM203.81,138.58c0,.41.08.64.36.64s.36-.24.36-.64v-3.38c0-.27-.03-.66-.36-.66s-.36.39-.36.66v3.38Z"/>
    <path class="cls-2" d="M207.3,139.31v-.19h.69v-4.48h-.64v-.19h1.2c.4,0,.8-.08,1.2-.1v4.77h.62v.19h-3.07Z"/>
  </g>
  <g>
    <path class="cls-2" d="M7.11,135.31c0-1.06,0-1.26-.01-1.48-.01-.24-.07-.35-.3-.4-.06-.01-.18-.02-.27-.02-.08,0-.12-.01-.12-.06s.05-.06.15-.06c.37,0,.81.02,1.01.02.29,0,.69-.02,1.02-.02.88,0,1.19.29,1.3.4.15.15.35.46.35.83,0,.99-.73,1.69-1.72,1.69-.04,0-.11,0-.15,0-.04,0-.08-.01-.08-.06,0-.06.05-.08.2-.08.39,0,.94-.44.94-1.16,0-.23-.02-.7-.41-1.05-.25-.23-.54-.27-.7-.27-.1,0-.21,0-.27.03-.03.01-.06.06-.06.13v2.8c0,.64,0,1.2.03,1.5.02.2.06.35.27.38.1.01.25.03.36.03.08,0,.11.02.11.06,0,.05-.06.07-.13.07-.46,0-.9-.02-1.09-.02-.16,0-.6.02-.88.02-.09,0-.14-.02-.14-.07,0-.04.03-.06.11-.06.1,0,.19-.01.25-.03.14-.03.17-.18.2-.38.03-.29.03-.85.03-1.49v-1.23Z"/>
    <path class="cls-2" d="M11.33,137.08s-.04,0-.06.04l-.33.8c-.06.15-.09.29-.09.36,0,.1.06.17.25.17h.09c.08,0,.09.03.09.06,0,.05-.04.06-.1.06-.2,0-.49-.02-.69-.02-.06,0-.39.02-.71.02-.08,0-.11-.01-.11-.06,0-.04.02-.06.07-.06.06,0,.13,0,.18,0,.28-.04.39-.22.51-.52l1.61-3.75c.07-.17.12-.24.18-.24.09,0,.12.06.18.19.15.33,1.18,2.77,1.57,3.67.24.54.41.62.52.64.09.01.16.02.23.02.06,0,.08.02.08.06,0,.05-.04.06-.27.06-.22,0-.67,0-1.18-.01-.11,0-.18,0-.18-.05,0-.04.01-.06.08-.06.04,0,.08-.06.06-.13l-.48-1.2s-.04-.04-.06-.04h-1.45ZM12.65,136.75s.04-.01.03-.03l-.58-1.51s-.01-.06-.03-.06c-.02,0-.03.03-.04.06l-.6,1.51s0,.04.02.04h1.19Z"/>
    <path class="cls-2" d="M15.49,135.8c0-.9,0-1.07,0-1.26-.01-.2-.07-.27-.27-.32-.05-.01-.15-.02-.25-.02-.06,0-.1-.02-.1-.06s.05-.06.14-.06c.32,0,.71.01.84.01.21,0,.77-.01.96-.01.39,0,.84.04,1.17.25.17.12.43.42.43.82,0,.44-.25.83-.85,1.32.55.67.98,1.21,1.35,1.58.34.34.56.37.66.39.06.01.1.01.15.01s.08.04.08.06c0,.05-.04.06-.12.06h-.59c-.34,0-.51-.04-.67-.12-.27-.13-.5-.41-.84-.88-.25-.32-.5-.72-.58-.81-.04-.03-.07-.04-.11-.04h-.55s-.05,0-.05.04v.08c0,.55,0,1.02.04,1.27.02.18.05.29.24.32.09.01.22.02.3.02.05,0,.08.04.08.06,0,.04-.05.06-.13.06-.36,0-.87-.02-.96-.02-.12,0-.51.02-.76.02-.08,0-.12-.02-.12-.06,0-.03.02-.06.1-.06.09,0,.16,0,.22-.02.13-.03.16-.14.18-.32.03-.25.03-.72.03-1.27v-1.05ZM16.27,136.26c0,.06.01.08.06.1.13.04.31.06.47.06.25,0,.33-.02.43-.1.19-.13.4-.39.4-.88,0-.84-.57-1.06-.94-1.06-.15,0-.3,0-.36.02-.04.01-.06.04-.06.08v1.77Z"/>
    <path class="cls-2" d="M20.56,137.08s-.04,0-.06.04l-.33.8c-.06.15-.09.29-.09.36,0,.1.06.17.25.17h.09c.08,0,.09.03.09.06,0,.05-.04.06-.1.06-.2,0-.49-.02-.69-.02-.06,0-.39.02-.71.02-.08,0-.11-.01-.11-.06,0-.04.02-.06.07-.06.06,0,.13,0,.18,0,.28-.04.39-.22.51-.52l1.61-3.75c.07-.17.12-.24.18-.24.09,0,.12.06.18.19.15.33,1.18,2.77,1.57,3.67.24.54.41.62.52.64.09.01.16.02.23.02.06,0,.08.02.08.06,0,.05-.04.06-.27.06-.22,0-.67,0-1.18-.01-.11,0-.18,0-.18-.05,0-.04.01-.06.08-.06.04,0,.08-.06.06-.13l-.48-1.2s-.04-.04-.06-.04h-1.45ZM21.87,136.75s.04-.01.03-.03l-.58-1.51s-.01-.06-.03-.06c-.02,0-.03.03-.04.06l-.6,1.51s0,.04.02.04h1.19Z"/>
    <path class="cls-2" d="M26.95,135.31c0-1.06,0-1.26-.01-1.48-.01-.24-.07-.35-.3-.4-.06-.01-.18-.02-.27-.02-.08,0-.12-.01-.12-.06s.05-.06.15-.06c.37,0,.81.02.95.02.34,0,.62-.02.85-.02,1.27,0,1.49.68,1.49,1.05,0,.57-.33.92-.71,1.23.57.2,1.27.69,1.27,1.51,0,.75-.58,1.53-1.87,1.53-.08,0-.29-.01-.49-.02-.21-.01-.42-.02-.53-.02-.08,0-.23,0-.4,0-.16,0-.34.01-.48.01-.09,0-.14-.02-.14-.07,0-.04.03-.06.11-.06.1,0,.19-.01.25-.03.14-.03.17-.18.2-.38.03-.29.03-.85.03-1.49v-1.23ZM27.79,135.43c0,.06.02.07.05.08.06.01.17.02.33.02.23,0,.39-.03.5-.13.18-.15.29-.4.29-.74,0-.47-.27-1.09-.88-1.09-.1,0-.16,0-.23.01-.05.01-.06.04-.06.12v1.73ZM28.72,135.99c-.15-.1-.31-.15-.58-.17-.13,0-.2,0-.3,0-.03,0-.04.01-.04.05v1.66c0,.46.02.58.25.67.19.08.35.08.51.08.31,0,.85-.17.85-.9,0-.43-.15-1.02-.68-1.39Z"/>
    <path class="cls-2" d="M31.62,135.8c0-.9,0-1.07,0-1.26-.01-.2-.07-.27-.27-.32-.05-.01-.15-.02-.25-.02-.06,0-.1-.02-.1-.06s.05-.06.14-.06c.32,0,.71.01.89.01.2,0,1.56,0,1.68,0,.11,0,.21-.03.26-.04.03,0,.07-.03.1-.03.04,0,.04.03.04.06,0,.04-.04.11-.05.39,0,.06-.02.32-.04.39,0,.03-.02.1-.07.1-.04,0-.05-.03-.05-.08,0-.04,0-.15-.04-.22-.05-.1-.1-.19-.41-.22-.11-.01-.84-.03-.97-.03-.03,0-.04.02-.04.06v1.47s0,.06.04.06c.14,0,.94,0,1.08-.01.15-.01.24-.03.29-.09.05-.04.07-.08.1-.08s.05.03.05.06-.01.13-.05.43c-.01.12-.03.36-.03.4,0,.05,0,.13-.06.13-.04,0-.06-.02-.06-.05,0-.06,0-.14-.02-.22-.04-.12-.11-.21-.34-.23-.11-.01-.81-.03-.97-.03-.03,0-.04.03-.04.06v.48c0,.2,0,.71,0,.88.01.41.2.5.83.5.16,0,.42,0,.58-.08.15-.07.22-.2.27-.44.01-.06.03-.09.07-.09.05,0,.06.08.06.14,0,.13-.05.54-.08.66-.04.15-.1.15-.33.15-.46,0-.83,0-1.13-.02-.3,0-.53-.01-.71-.01-.07,0-.2,0-.35,0-.15,0-.3.01-.43.01-.08,0-.12-.02-.12-.06,0-.03.02-.06.1-.06.09,0,.16,0,.22-.02.13-.03.16-.14.18-.32.03-.25.03-.72.03-1.27v-1.05Z"/>
    <path class="cls-2" d="M36.34,136.85c0,.76,0,1.14.13,1.25.1.09.34.13.82.13.33,0,.57,0,.72-.17.08-.08.14-.25.15-.36,0-.06.02-.09.07-.09.04,0,.06.06.06.13s-.04.51-.09.69c-.04.13-.07.16-.39.16-.44,0-.8,0-1.11-.02-.31,0-.57-.01-.82-.01-.07,0-.2,0-.35,0-.15,0-.3.01-.43.01-.08,0-.12-.02-.12-.06,0-.03.02-.06.1-.06.09,0,.16,0,.22-.02.13-.03.16-.14.18-.32.03-.25.03-.72.03-1.27v-1.05c0-.9,0-1.07,0-1.26-.01-.2-.07-.27-.27-.32-.05-.01-.13-.02-.2-.02-.07,0-.1-.02-.1-.06s.04-.06.13-.06c.29,0,.68.01.85.01.15,0,.65-.01.89-.01.09,0,.13.01.13.06s-.03.06-.11.06c-.07,0-.17,0-.24.02-.17.03-.22.11-.23.32-.01.19-.01.36-.01,1.26v1.05Z"/>
    <path class="cls-2" d="M40.2,136.85c0,.76,0,1.14.13,1.25.1.09.34.13.82.13.33,0,.57,0,.72-.17.08-.08.14-.25.15-.36,0-.06.02-.09.07-.09.04,0,.06.06.06.13s-.04.51-.09.69c-.04.13-.07.16-.39.16-.44,0-.8,0-1.11-.02-.31,0-.57-.01-.82-.01-.07,0-.2,0-.35,0-.15,0-.3.01-.43.01-.08,0-.12-.02-.12-.06,0-.03.02-.06.1-.06.09,0,.16,0,.22-.02.13-.03.16-.14.18-.32.03-.25.03-.72.03-1.27v-1.05c0-.9,0-1.07,0-1.26-.01-.2-.07-.27-.27-.32-.05-.01-.13-.02-.2-.02-.07,0-.1-.02-.1-.06s.04-.06.13-.06c.29,0,.68.01.85.01.15,0,.65-.01.89-.01.09,0,.13.01.13.06s-.03.06-.11.06c-.07,0-.17,0-.24.02-.17.03-.22.11-.23.32-.01.19-.01.36-.01,1.26v1.05Z"/>
    <path class="cls-2" d="M42.84,135.8c0-.9,0-1.07,0-1.26-.01-.21-.07-.27-.27-.32-.05-.01-.15-.02-.24-.02-.07,0-.1-.02-.1-.06s.04-.06.13-.06c.33,0,.74.01.92.01.15,0,.57-.01.79-.01.09,0,.13.01.13.06s-.03.06-.1.06c-.07,0-.1,0-.18.02-.16.03-.21.11-.22.32-.01.19-.01.36-.01,1.26v.83c0,.87.17,1.21.47,1.44.27.22.57.24.78.24.27,0,.58-.08.83-.32.34-.32.36-.84.36-1.45v-.75c0-.9,0-1.07-.01-1.26-.01-.2-.06-.27-.26-.32-.05-.01-.15-.02-.22-.02s-.1-.02-.1-.06.04-.06.13-.06c.31,0,.73.01.74.01.07,0,.48-.01.72-.01.08,0,.13.01.13.06s-.04.06-.11.06-.1,0-.18.02c-.17.03-.21.11-.22.32,0,.19-.01.36-.01,1.26v.64c0,.67-.07,1.37-.59,1.79-.43.36-.9.43-1.3.43-.32,0-.96-.01-1.41-.41-.32-.27-.56-.71-.56-1.58v-.88Z"/>
    <path class="cls-2" d="M48.54,134.09c.01-.1.07-.15.12-.15.06,0,.1.03.19.19l1.65,3.32,1.65-3.36c.05-.1.1-.15.16-.15.05,0,.12.06.14.19l.56,3.68c.06.37.11.53.3.59.18.05.27.06.35.06.06,0,.1.02.1.06,0,.05-.07.07-.16.07-.15,0-1.03-.03-1.27-.04-.15,0-.18-.04-.18-.07,0-.03.03-.05.07-.06.04-.01.05-.08.03-.25l-.34-2.58h-.02l-1.32,2.66c-.14.28-.18.34-.25.34-.08,0-.15-.12-.25-.3-.15-.27-.64-1.18-.71-1.35-.05-.11-.41-.86-.62-1.27h-.02l-.29,2.33c-.01.1-.02.18-.02.28,0,.11.08.15.19.17.1.02.16.03.22.03s.1.03.1.06c0,.06-.06.07-.15.07-.26,0-.54-.02-.65-.02-.12,0-.41.02-.61.02-.06,0-.11-.01-.11-.07,0-.03.04-.06.1-.06.05,0,.09,0,.19-.01.17-.02.22-.26.25-.46l.61-3.89Z"/>
    <path class="cls-2" d="M57.01,135.31c0-1.06,0-1.26-.01-1.48-.01-.24-.07-.35-.3-.4-.06-.01-.18-.02-.27-.02-.08,0-.12-.01-.12-.06s.05-.06.15-.06c.37,0,.81.02.99.02.17,0,.61-.02.88-.02.1,0,.15.01.15.06s-.04.06-.13.06c-.08,0-.12,0-.2.02-.19.04-.25.15-.26.4-.01.22-.01.42-.01,1.48v1.3c0,.3.02.64.02.99,0,.4-.03.85-.17,1.24-.15.43-.52.91-1.19,1.32-.09.06-.2.11-.35.18-.05.03-.1.04-.14.04-.03,0-.06-.02-.06-.06s.03-.06.15-.13c.09-.05.2-.13.34-.27.53-.54.52-1.24.52-2.61v-2.01Z"/>
    <path class="cls-2" d="M59.64,135.8c0-.9,0-1.07,0-1.26-.01-.2-.07-.27-.27-.32-.05-.01-.15-.02-.25-.02-.06,0-.1-.02-.1-.06s.05-.06.14-.06c.32,0,.71.01.89.01.2,0,1.56,0,1.68,0,.11,0,.21-.03.26-.04.03,0,.07-.03.1-.03.04,0,.04.03.04.06,0,.04-.04.11-.05.39,0,.06-.02.32-.04.39,0,.03-.02.1-.07.1-.04,0-.05-.03-.05-.08,0-.04,0-.15-.04-.22-.05-.1-.1-.19-.41-.22-.11-.01-.84-.03-.97-.03-.03,0-.04.02-.04.06v1.47s0,.06.04.06c.14,0,.94,0,1.08-.01.15-.01.24-.03.29-.09.05-.04.07-.08.1-.08s.05.03.05.06-.01.13-.05.43c-.01.12-.03.36-.03.4,0,.05,0,.13-.06.13-.04,0-.06-.02-.06-.05,0-.06,0-.14-.02-.22-.04-.12-.11-.21-.34-.23-.11-.01-.81-.03-.97-.03-.03,0-.04.03-.04.06v.48c0,.2,0,.71,0,.88.01.41.2.5.83.5.16,0,.42,0,.58-.08.15-.07.22-.2.27-.44.01-.06.03-.09.07-.09.05,0,.06.08.06.14,0,.13-.05.54-.08.66-.04.15-.1.15-.33.15-.46,0-.83,0-1.13-.02-.3,0-.53-.01-.71-.01-.07,0-.2,0-.35,0-.15,0-.3.01-.43.01-.08,0-.12-.02-.12-.06,0-.03.02-.06.1-.06.09,0,.16,0,.22-.02.13-.03.16-.14.18-.32.03-.25.03-.72.03-1.27v-1.05Z"/>
    <path class="cls-2" d="M63.94,137.08s-.04,0-.06.04l-.33.8c-.06.15-.09.29-.09.36,0,.1.06.17.25.17h.09c.08,0,.09.03.09.06,0,.05-.04.06-.1.06-.2,0-.49-.02-.69-.02-.06,0-.39.02-.71.02-.08,0-.11-.01-.11-.06,0-.04.02-.06.07-.06.06,0,.13,0,.18,0,.28-.04.39-.22.51-.52l1.61-3.75c.07-.17.12-.24.18-.24.09,0,.12.06.18.19.15.33,1.18,2.77,1.57,3.67.24.54.41.62.52.64.09.01.16.02.23.02.06,0,.08.02.08.06,0,.05-.04.06-.27.06-.22,0-.67,0-1.18-.01-.11,0-.18,0-.18-.05,0-.04.01-.06.08-.06.04,0,.08-.06.06-.13l-.48-1.2s-.04-.04-.06-.04h-1.45ZM65.26,136.75s.04-.01.03-.03l-.58-1.51s-.01-.06-.03-.06c-.02,0-.03.03-.04.06l-.6,1.51s0,.04.02.04h1.19Z"/>
    <path class="cls-2" d="M68.48,137.76c.01.46.09.6.21.64.1.03.22.04.32.04.07,0,.1.03.1.06,0,.05-.06.06-.14.06-.4,0-.69-.02-.8-.02-.06,0-.35.02-.67.02-.08,0-.14,0-.14-.06,0-.04.04-.06.1-.06.08,0,.2,0,.28-.03.16-.04.18-.2.19-.72l.06-3.53c0-.12.04-.2.1-.2.08,0,.16.09.27.2.08.08,1,1.02,1.9,1.9.42.41,1.24,1.25,1.33,1.34h.03l-.06-2.65c0-.36-.06-.47-.21-.52-.09-.04-.24-.04-.32-.04-.08,0-.1-.03-.1-.06,0-.05.06-.06.15-.06.32,0,.65.01.78.01.07,0,.3-.01.6-.01.08,0,.14,0,.14.06,0,.03-.04.06-.1.06-.06,0-.11,0-.19.02-.17.05-.22.15-.22.49l-.07,3.75c0,.13-.05.19-.1.19-.11,0-.19-.06-.25-.13-.39-.36-1.16-1.09-1.8-1.72-.67-.64-1.32-1.37-1.44-1.47h-.02l.07,2.43Z"/>
    <path class="cls-2" d="M73.65,138.5c-.1-.04-.12-.07-.12-.2,0-.32.03-.69.04-.79,0-.09.03-.15.08-.15.06,0,.06.06.06.1,0,.08.02.2.06.31.13.44.6.59.98.59.53,0,.85-.34.85-.76,0-.26-.06-.52-.61-.84l-.36-.21c-.73-.43-.97-.83-.97-1.35,0-.73.7-1.2,1.55-1.2.4,0,.71.06.88.1.06.01.08.03.08.08,0,.08-.02.25-.02.71,0,.13-.03.19-.08.19-.04,0-.06-.04-.06-.1,0-.06-.03-.24-.16-.39-.09-.11-.29-.28-.69-.28-.44,0-.84.23-.84.64,0,.27.1.48.65.78l.25.14c.81.45,1.06.9,1.06,1.44,0,.44-.17.8-.62,1.11-.29.21-.7.25-1.03.25-.36,0-.74-.04-1-.15Z"/>
  </g>
  <rect class="cls-1" x=".5" y=".5" width="216" height="144"/>
</svg>